<?xml version="1.0" encoding="utf-8"?>
<!-- Generator: Adobe Illustrator 23.0.1, SVG Export Plug-In . SVG Version: 6.00 Build 0)  -->
<svg version="1.1" id="Layer_1" focusable="false" xmlns="http://www.w3.org/2000/svg" xmlns:xlink="http://www.w3.org/1999/xlink"
	 x="0px" y="0px" viewBox="0 0 512 392" style="enable-background:new 0 0 512 392;" xml:space="preserve">
<path d="M416,384h-84c-6.6,0-12-5.4-12-12v-40c0-6.6,5.4-12,12-12h84c17.7,0,32-14.3,32-32V96c0-17.7-14.3-32-32-32h-84
	c-6.6,0-12-5.4-12-12V12c0-6.6,5.4-12,12-12h84c53,0,96,43,96,96v192C512,341,469,384,416,384z M369,183L201,15c-15-15-41-4.5-41,17
	v96H24c-13.3,0-24,10.7-24,24v96c0,13.3,10.7,24,24,24h136v96c0,21.5,26,32,41,17l168-168C378.3,207.6,378.3,192.4,369,183z"/>
</svg>
